<?xml version="1.0" encoding="UTF-8"?>
<svg xmlns="http://www.w3.org/2000/svg" xmlns:xlink="http://www.w3.org/1999/xlink" width="90pt" height="90pt" viewBox="0 0 90 90" version="1.1">
<g id="surface480">
<path style="fill-rule:nonzero;fill:rgb(30.19608%,30.19608%,30.19608%);fill-opacity:1;stroke-width:1.3149;stroke-linecap:butt;stroke-linejoin:miter;stroke:rgb(0%,0%,0%);stroke-opacity:1;stroke-miterlimit:4;" d="M 95.328125 48 C 95.328125 74.144531 74.140625 95.34375 48 95.34375 C 21.859375 95.34375 0.671875 74.144531 0.671875 48 C 0.671875 21.855469 21.859375 0.65625 48 0.65625 C 74.140625 0.65625 95.328125 21.855469 95.328125 48 Z M 95.328125 48 "/>
<path style=" stroke:none;fill-rule:nonzero;fill:rgb(98.039216%,98.039216%,98.039216%);fill-opacity:1;" d="M 48.015625 10 L 68.390625 30.375 L 70.546875 34.71875 L 65.890625 33.1875 L 49.859375 16.8125 L 49.859375 69.1875 L 48.015625 73.78125 L 46.140625 69.1875 L 46.140625 16.84375 L 30.109375 33.1875 L 25.453125 34.75 L 27.640625 30.375 Z M 48.015625 10 "/>
<path style=" stroke:none;fill-rule:nonzero;fill:rgb(98.039216%,98.039216%,98.039216%);fill-opacity:1;" d="M 48.015625 86 L 68.390625 65.625 L 70.546875 61.28125 L 65.890625 62.8125 L 49.859375 79.1875 L 49.859375 26.8125 L 48.015625 22.21875 L 46.140625 26.8125 L 46.140625 79.15625 L 30.109375 62.8125 L 25.453125 61.25 L 27.640625 65.625 Z M 48.015625 86 "/>
</g>
</svg>
