<?xml version="1.0" encoding="UTF-8" standalone="no"?>
<svg
   width="100pt"
   height="100pt"
   viewBox="0 0 100 100"
   version="1.1"
   id="svg2"
   sodipodi:docname="dark-half.svg"
   inkscape:version="1.3.2 (091e20ef0f, 2023-11-25)"
   xmlns:inkscape="http://www.inkscape.org/namespaces/inkscape"
   xmlns:sodipodi="http://sodipodi.sourceforge.net/DTD/sodipodi-0.dtd"
   xmlns="http://www.w3.org/2000/svg"
   xmlns:svg="http://www.w3.org/2000/svg">
  <defs
     id="defs2" />
  <sodipodi:namedview
     id="namedview2"
     pagecolor="#ffffff"
     bordercolor="#000000"
     borderopacity="0.25"
     inkscape:showpageshadow="2"
     inkscape:pageopacity="0.0"
     inkscape:pagecheckerboard="0"
     inkscape:deskcolor="#d1d1d1"
     inkscape:document-units="pt"
     inkscape:zoom="6.7083333"
     inkscape:cx="60"
     inkscape:cy="60"
     inkscape:window-width="1920"
     inkscape:window-height="1011"
     inkscape:window-x="0"
     inkscape:window-y="0"
     inkscape:window-maximized="1"
     inkscape:current-layer="svg2" />
  <g
     id="surface466"
     transform="translate(2,1.878906)">
    <path
       style="fill:#4c4c4c;fill-opacity:1;fill-rule:nonzero;stroke:#000000;stroke-width:1.3149;stroke-linecap:butt;stroke-linejoin:miter;stroke-miterlimit:4;stroke-opacity:1"
       d="m 95.328125,48.121094 c 0,26.144531 -21.1875,47.34375 -47.328125,47.34375 -26.140625,0 -47.328125,-21.199219 -47.328125,-47.34375 0,-26.144532 21.1875,-47.34375 47.328125,-47.34375 26.140625,0 47.328125,21.199218 47.328125,47.34375 z m 0,0"
       id="path1" />
    <path
       style="fill:#fafafa;fill-opacity:1;fill-rule:nonzero;stroke:none"
       d="m 33.453125,49.03125 12.125,-12.125 -12.125,-12.15625 z m 0,5.21875 v 20.8125 l -1.875,4.59375 -1.84375,-4.59375 c 0,-9.769531 0,-19.550781 0,-29.34375 0.01953,-9.792969 0.01953,-19.585938 0,-29.375 2.957031,3.0625 6.011719,6.0625 9.15625,9 3.144531,2.914062 6.25,5.894531 9.3125,8.9375 l 18.0625,-17.9375 c 0,9.789062 0,19.582031 0,29.375 0,9.792969 0,19.574219 0,29.34375 l -1.84375,4.59375 -1.84375,-4.59375 V 53.90625 L 48.203125,39.5 Z m 17.375,-17.34375 11.75,11.75 V 25.125 Z m 0,0"
       id="path2" />
  </g>
</svg>
