<?xml version="1.0" encoding="UTF-8" standalone="no"?>
<svg
   width="100pt"
   height="100pt"
   viewBox="0 0 100 100"
   version="1.1"
   id="svg3"
   sodipodi:docname="dark-king-full.svg"
   inkscape:version="1.3.2 (091e20ef0f, 2023-11-25)"
   xmlns:inkscape="http://www.inkscape.org/namespaces/inkscape"
   xmlns:sodipodi="http://sodipodi.sourceforge.net/DTD/sodipodi-0.dtd"
   xmlns="http://www.w3.org/2000/svg"
   xmlns:svg="http://www.w3.org/2000/svg">
  <defs
     id="defs3" />
  <sodipodi:namedview
     id="namedview3"
     pagecolor="#ffffff"
     bordercolor="#000000"
     borderopacity="0.25"
     inkscape:showpageshadow="2"
     inkscape:pageopacity="0.0"
     inkscape:pagecheckerboard="0"
     inkscape:deskcolor="#d1d1d1"
     inkscape:document-units="pt"
     showguides="false"
     inkscape:zoom="6.7083333"
     inkscape:cx="60"
     inkscape:cy="60"
     inkscape:window-width="1920"
     inkscape:window-height="1011"
     inkscape:window-x="0"
     inkscape:window-y="0"
     inkscape:window-maximized="1"
     inkscape:current-layer="svg3" />
  <g
     id="surface480"
     transform="translate(2,2)">
    <path
       style="fill:#4c4c4c;fill-opacity:1;fill-rule:nonzero;stroke:#000000;stroke-width:1.3149;stroke-linecap:butt;stroke-linejoin:miter;stroke-miterlimit:4;stroke-opacity:1"
       d="M 95.328125,48 C 95.328125,74.144531 74.140625,95.34375 48,95.34375 21.859375,95.34375 0.671875,74.144531 0.671875,48 0.671875,21.855469 21.859375,0.65625 48,0.65625 74.140625,0.65625 95.328125,21.855469 95.328125,48 Z m 0,0"
       id="path1" />
    <path
       style="fill:#fafafa;fill-opacity:1;fill-rule:nonzero;stroke:none"
       d="m 48.015625,10 20.375,20.375 2.15625,4.34375 -4.65625,-1.53125 -16.03125,-16.375 v 52.375 l -1.84375,4.59375 -1.875,-4.59375 V 16.84375 l -16.03125,16.34375 -4.65625,1.5625 2.1875,-4.375 z m 0,0"
       id="path2" />
    <path
       style="fill:#fafafa;fill-opacity:1;fill-rule:nonzero;stroke:none"
       d="m 48.015625,86 20.375,-20.375 2.15625,-4.34375 -4.65625,1.53125 -16.03125,16.375 v -52.375 l -1.84375,-4.59375 -1.875,4.59375 V 79.15625 L 30.109375,62.8125 25.453125,61.25 l 2.1875,4.375 z m 0,0"
       id="path3" />
  </g>
</svg>
