<?xml version="1.0" encoding="UTF-8"?>
<svg xmlns="http://www.w3.org/2000/svg" xmlns:xlink="http://www.w3.org/1999/xlink" width="90pt" height="90pt" viewBox="0 0 90 90" version="1.1">
<g id="surface504">
<path style="fill-rule:nonzero;fill:rgb(98.039216%,98.039216%,98.039216%);fill-opacity:1;stroke-width:1.3149;stroke-linecap:butt;stroke-linejoin:miter;stroke:rgb(0%,0%,0%);stroke-opacity:1;stroke-miterlimit:4;" d="M 95.328125 48 C 95.328125 74.144531 74.140625 95.34375 48 95.34375 C 21.859375 95.34375 0.671875 74.144531 0.671875 48 C 0.671875 21.855469 21.859375 0.65625 48 0.65625 C 74.140625 0.65625 95.328125 21.855469 95.328125 48 Z M 95.328125 48 "/>
<path style=" stroke:none;fill-rule:nonzero;fill:rgb(0%,0%,0%);fill-opacity:1;" d="M 33.453125 42.6875 L 45.578125 30.5625 L 33.453125 18.40625 Z M 33.453125 47.90625 L 33.453125 68.71875 L 31.578125 73.3125 L 29.734375 68.71875 C 29.734375 58.949219 29.734375 49.167969 29.734375 39.375 C 29.753906 29.585938 29.753906 19.792969 29.734375 10 C 32.691406 13.0625 35.742188 16.0625 38.890625 19 C 42.035156 21.917969 45.140625 24.894531 48.203125 27.9375 L 66.265625 10 C 66.265625 19.792969 66.265625 29.582031 66.265625 39.375 C 66.265625 49.167969 66.265625 58.949219 66.265625 68.71875 L 64.421875 73.3125 L 62.578125 68.71875 L 62.578125 47.5625 L 48.203125 33.15625 Z M 50.828125 30.5625 L 62.578125 42.3125 L 62.578125 18.78125 Z M 50.828125 30.5625 "/>
<path style=" stroke:none;fill-rule:nonzero;fill:rgb(0%,0%,0%);fill-opacity:1;" d="M 62.546875 53.3125 L 50.421875 65.4375 L 62.546875 77.59375 Z M 62.546875 48.09375 L 62.546875 27.28125 L 64.421875 22.6875 L 66.265625 27.28125 C 66.265625 37.050781 66.265625 46.832031 66.265625 56.625 C 66.246094 66.417969 66.246094 76.207031 66.265625 86 C 63.308594 82.9375 60.253906 79.9375 57.109375 77 C 53.964844 74.082031 50.859375 71.105469 47.796875 68.0625 L 29.734375 86 C 29.734375 76.210938 29.734375 66.417969 29.734375 56.625 C 29.734375 46.835938 29.734375 37.054688 29.734375 27.28125 L 31.578125 22.6875 L 33.421875 27.28125 L 33.421875 48.4375 L 47.796875 62.84375 Z M 45.171875 65.4375 L 33.421875 53.6875 L 33.421875 77.21875 Z M 45.171875 65.4375 "/>
</g>
</svg>
