<?xml version="1.0" encoding="UTF-8" standalone="no"?>
<svg
   width="100pt"
   height="100pt"
   viewBox="0 0 100 100"
   version="1.1"
   id="svg3"
   sodipodi:docname="light-full.svg"
   inkscape:version="1.3.2 (091e20ef0f, 2023-11-25)"
   xmlns:inkscape="http://www.inkscape.org/namespaces/inkscape"
   xmlns:sodipodi="http://sodipodi.sourceforge.net/DTD/sodipodi-0.dtd"
   xmlns="http://www.w3.org/2000/svg"
   xmlns:svg="http://www.w3.org/2000/svg">
  <defs
     id="defs3" />
  <sodipodi:namedview
     id="namedview3"
     pagecolor="#ffffff"
     bordercolor="#000000"
     borderopacity="0.25"
     inkscape:showpageshadow="2"
     inkscape:pageopacity="0.0"
     inkscape:pagecheckerboard="0"
     inkscape:deskcolor="#d1d1d1"
     inkscape:document-units="pt"
     inkscape:zoom="6.7083333"
     inkscape:cx="60"
     inkscape:cy="60"
     inkscape:window-width="1920"
     inkscape:window-height="1011"
     inkscape:window-x="0"
     inkscape:window-y="0"
     inkscape:window-maximized="1"
     inkscape:current-layer="svg3" />
  <g
     id="surface504"
     transform="translate(2,2)">
    <path
       style="fill:#fafafa;fill-opacity:1;fill-rule:nonzero;stroke:#000000;stroke-width:1.3149;stroke-linecap:butt;stroke-linejoin:miter;stroke-miterlimit:4;stroke-opacity:1"
       d="M 95.328125,48 C 95.328125,74.144531 74.140625,95.34375 48,95.34375 21.859375,95.34375 0.671875,74.144531 0.671875,48 0.671875,21.855469 21.859375,0.65625 48,0.65625 74.140625,0.65625 95.328125,21.855469 95.328125,48 Z m 0,0"
       id="path1" />
    <path
       style="fill:#000000;fill-opacity:1;fill-rule:nonzero;stroke:none"
       d="m 33.453125,42.6875 12.125,-12.125 -12.125,-12.15625 z m 0,5.21875 v 20.8125 l -1.875,4.59375 -1.84375,-4.59375 c 0,-9.769531 0,-19.550781 0,-29.34375 0.01953,-9.789062 0.01953,-19.582031 0,-29.375 2.957031,3.0625 6.007813,6.0625 9.15625,9 3.144531,2.917969 6.25,5.894531 9.3125,8.9375 L 66.265625,10 c 0,9.792969 0,19.582031 0,29.375 0,9.792969 0,19.574219 0,29.34375 l -1.84375,4.59375 -1.84375,-4.59375 V 47.5625 l -14.375,-14.40625 z m 17.375,-17.34375 11.75,11.75 V 18.78125 Z m 0,0"
       id="path2" />
    <path
       style="fill:#000000;fill-opacity:1;fill-rule:nonzero;stroke:none"
       d="m 62.546875,53.3125 -12.125,12.125 12.125,12.15625 z m 0,-5.21875 v -20.8125 l 1.875,-4.59375 1.84375,4.59375 c 0,9.769531 0,19.550781 0,29.34375 -0.01953,9.792969 -0.01953,19.582031 0,29.375 -2.957031,-3.0625 -6.011719,-6.0625 -9.15625,-9 -3.144531,-2.917969 -6.25,-5.894531 -9.3125,-8.9375 L 29.734375,86 c 0,-9.789062 0,-19.582031 0,-29.375 0,-9.789062 0,-19.570312 0,-29.34375 l 1.84375,-4.59375 1.84375,4.59375 V 48.4375 l 14.375,14.40625 z m -17.375,17.34375 -11.75,-11.75 v 23.53125 z m 0,0"
       id="path3" />
  </g>
</svg>
