<?xml version="1.0" encoding="UTF-8"?>
<svg xmlns="http://www.w3.org/2000/svg" xmlns:xlink="http://www.w3.org/1999/xlink" width="90pt" height="90pt" viewBox="0 0 90 90" version="1.1">
<g id="surface495">
<path style="fill-rule:nonzero;fill:rgb(98.039216%,98.039216%,98.039216%);fill-opacity:1;stroke-width:1.3149;stroke-linecap:butt;stroke-linejoin:miter;stroke:rgb(0%,0%,0%);stroke-opacity:1;stroke-miterlimit:4;" d="M 95.328125 48 C 95.328125 74.144531 74.140625 95.34375 48 95.34375 C 21.859375 95.34375 0.671875 74.144531 0.671875 48 C 0.671875 21.855469 21.859375 0.65625 48 0.65625 C 74.140625 0.65625 95.328125 21.855469 95.328125 48 Z M 95.328125 48 "/>
<path style=" stroke:none;fill-rule:nonzero;fill:rgb(0%,0%,0%);fill-opacity:1;" d="M 33.453125 49.03125 L 45.578125 36.90625 L 33.453125 24.75 Z M 33.453125 54.25 L 33.453125 75.0625 L 31.578125 79.65625 L 29.734375 75.0625 C 29.734375 65.292969 29.734375 55.511719 29.734375 45.71875 C 29.753906 35.925781 29.753906 26.132812 29.734375 16.34375 C 32.691406 19.40625 35.746094 22.40625 38.890625 25.34375 C 42.035156 28.257812 45.140625 31.238281 48.203125 34.28125 L 66.265625 16.34375 C 66.265625 26.132812 66.265625 35.925781 66.265625 45.71875 C 66.265625 55.511719 66.265625 65.292969 66.265625 75.0625 L 64.421875 79.65625 L 62.578125 75.0625 L 62.578125 53.90625 L 48.203125 39.5 Z M 50.828125 36.90625 L 62.578125 48.65625 L 62.578125 25.125 Z M 50.828125 36.90625 "/>
</g>
</svg>
